<svg xmlns="http://www.w3.org/2000/svg" xmlns:xlink="http://www.w3.org/1999/xlink" width="500" zoomAndPan="magnify" viewBox="0 0 375 374.999991" height="500" preserveAspectRatio="xMidYMid meet" version="1.0"><defs><clipPath id="23d45fa753"><path d="M 9 33.269531 L 316 33.269531 L 316 352.769531 L 9 352.769531 Z M 9 33.269531 " clip-rule="nonzero"/></clipPath><clipPath id="6e57fdf900"><path d="M 223 34 L 372 34 L 372 234 L 223 234 Z M 223 34 " clip-rule="nonzero"/></clipPath><clipPath id="1838057dda"><path d="M 325.148438 251.59375 L 161.335938 170.011719 L 241.914062 8.21875 L 405.722656 89.796875 Z M 325.148438 251.59375 " clip-rule="nonzero"/></clipPath><clipPath id="053ef3d20b"><path d="M 325.148438 251.59375 L 161.335938 170.011719 L 241.914062 8.21875 L 405.722656 89.796875 Z M 325.148438 251.59375 " clip-rule="nonzero"/></clipPath></defs><g clip-path="url(#23d45fa753)"><path fill="#7ed957" d="M 86.355469 137.078125 L 9.722656 342.253906 C 7.859375 347.25 11.554688 352.574219 16.886719 352.574219 L 82.0625 352.574219 C 85.304688 352.574219 88.191406 350.53125 89.273438 347.476562 L 107.472656 295.957031 L 129.5 229.96875 C 130.019531 228.414062 130.023438 226.730469 129.511719 225.171875 L 100.78125 137.375 C 98.53125 130.503906 88.882812 130.304688 86.355469 137.078125 Z M 194.5625 33.261719 L 136.414062 33.261719 C 131.160156 33.261719 127.46875 38.449219 129.191406 43.410156 L 161.847656 137.554688 L 161.890625 137.421875 L 215.46875 295.957031 L 234.046875 347.523438 C 235.140625 350.550781 238.015625 352.574219 241.242188 352.574219 L 308.039062 352.574219 C 313.375 352.574219 317.070312 347.25 315.203125 342.257812 L 201.726562 38.234375 C 200.609375 35.246094 197.753906 33.261719 194.5625 33.261719 " fill-opacity="1" fill-rule="nonzero"/></g><g clip-path="url(#6e57fdf900)"><g clip-path="url(#1838057dda)"><g clip-path="url(#053ef3d20b)"><path fill="#7ed957" d="M 332.253906 189.863281 C 322.546875 209.359375 307.363281 224.328125 289.492188 233.832031 C 319.304688 228.136719 346.207031 209.078125 360.78125 179.8125 C 385.5625 130.050781 365.3125 69.617188 315.546875 44.835938 C 285.28125 29.761719 251.070312 31.347656 223.332031 46.097656 C 244.214844 42.109375 266.523438 44.675781 287.023438 54.882812 C 336.78125 79.664062 357.039062 140.097656 332.257812 189.863281 Z M 332.253906 189.863281 " fill-opacity="1" fill-rule="nonzero"/></g></g></g></svg>