<svg xmlns="http://www.w3.org/2000/svg" xmlns:xlink="http://www.w3.org/1999/xlink" width="500" zoomAndPan="magnify" viewBox="0 0 375 374.999991" height="500" preserveAspectRatio="xMidYMid meet" version="1.0"><defs><clipPath id="72e4f7338c"><path d="M 2.777344 2.777344 L 372.527344 2.777344 L 372.527344 372.527344 L 2.777344 372.527344 Z M 2.777344 2.777344 " clip-rule="nonzero"/></clipPath><clipPath id="6773b83b9b"><path d="M 187.652344 2.777344 C 190.679688 2.777344 193.703125 2.851562 196.722656 3 C 199.746094 3.148438 202.761719 3.371094 205.773438 3.667969 C 208.785156 3.964844 211.785156 4.335938 214.78125 4.777344 C 217.773438 5.222656 220.753906 5.738281 223.71875 6.332031 C 226.6875 6.921875 229.640625 7.582031 232.574219 8.316406 C 235.507812 9.054688 238.421875 9.859375 241.320312 10.738281 C 244.214844 11.617188 247.085938 12.566406 249.933594 13.585938 C 252.785156 14.605469 255.605469 15.691406 258.402344 16.851562 C 261.195312 18.007812 263.960938 19.234375 266.695312 20.527344 C 269.433594 21.820312 272.132812 23.179688 274.800781 24.609375 C 277.46875 26.035156 280.101562 27.523438 282.699219 29.082031 C 285.292969 30.636719 287.847656 32.253906 290.363281 33.933594 C 292.878906 35.617188 295.351562 37.359375 297.78125 39.160156 C 300.210938 40.960938 302.597656 42.824219 304.9375 44.742188 C 307.273438 46.660156 309.566406 48.636719 311.808594 50.667969 C 314.050781 52.703125 316.238281 54.785156 318.378906 56.925781 C 320.519531 59.066406 322.605469 61.257812 324.636719 63.5 C 326.667969 65.738281 328.644531 68.03125 330.5625 70.371094 C 332.484375 72.707031 334.34375 75.09375 336.144531 77.523438 C 337.949219 79.953125 339.691406 82.425781 341.371094 84.941406 C 343.050781 87.457031 344.667969 90.011719 346.226562 92.609375 C 347.78125 95.203125 349.273438 97.835938 350.699219 100.503906 C 352.125 103.171875 353.484375 105.875 354.777344 108.609375 C 356.070312 111.34375 357.296875 114.109375 358.453125 116.902344 C 359.613281 119.699219 360.703125 122.523438 361.722656 125.371094 C 362.738281 128.21875 363.6875 131.089844 364.566406 133.988281 C 365.445312 136.882812 366.253906 139.796875 366.988281 142.730469 C 367.722656 145.667969 368.386719 148.617188 368.976562 151.585938 C 369.566406 154.554688 370.082031 157.53125 370.527344 160.527344 C 370.972656 163.519531 371.339844 166.519531 371.636719 169.53125 C 371.933594 172.542969 372.15625 175.558594 372.304688 178.582031 C 372.453125 181.601562 372.527344 184.628906 372.527344 187.652344 C 372.527344 190.679688 372.453125 193.703125 372.304688 196.722656 C 372.15625 199.746094 371.933594 202.761719 371.636719 205.773438 C 371.339844 208.785156 370.972656 211.785156 370.527344 214.78125 C 370.082031 217.773438 369.566406 220.753906 368.976562 223.71875 C 368.386719 226.6875 367.722656 229.640625 366.988281 232.574219 C 366.253906 235.507812 365.445312 238.421875 364.566406 241.320312 C 363.6875 244.214844 362.738281 247.085938 361.722656 249.933594 C 360.703125 252.785156 359.613281 255.605469 358.453125 258.402344 C 357.296875 261.195312 356.070312 263.960938 354.777344 266.695312 C 353.484375 269.433594 352.125 272.132812 350.699219 274.800781 C 349.273438 277.46875 347.78125 280.101562 346.226562 282.699219 C 344.667969 285.292969 343.050781 287.847656 341.371094 290.363281 C 339.691406 292.878906 337.949219 295.351562 336.144531 297.78125 C 334.34375 300.210938 332.484375 302.597656 330.5625 304.9375 C 328.644531 307.273438 326.667969 309.566406 324.636719 311.808594 C 322.605469 314.050781 320.519531 316.238281 318.378906 318.378906 C 316.238281 320.519531 314.050781 322.605469 311.808594 324.636719 C 309.566406 326.667969 307.273438 328.644531 304.9375 330.5625 C 302.597656 332.484375 300.210938 334.34375 297.78125 336.144531 C 295.351562 337.949219 292.878906 339.691406 290.363281 341.371094 C 287.847656 343.050781 285.292969 344.667969 282.699219 346.226562 C 280.101562 347.78125 277.46875 349.273438 274.800781 350.699219 C 272.132812 352.125 269.433594 353.484375 266.695312 354.777344 C 263.960938 356.070312 261.195312 357.296875 258.402344 358.453125 C 255.605469 359.613281 252.785156 360.703125 249.933594 361.71875 C 247.085938 362.738281 244.214844 363.6875 241.320312 364.566406 C 238.421875 365.445312 235.507812 366.253906 232.574219 366.988281 C 229.640625 367.722656 226.6875 368.386719 223.71875 368.976562 C 220.753906 369.566406 217.773438 370.082031 214.78125 370.527344 C 211.785156 370.972656 208.785156 371.339844 205.773438 371.636719 C 202.761719 371.933594 199.746094 372.15625 196.722656 372.304688 C 193.703125 372.453125 190.679688 372.527344 187.652344 372.527344 C 184.628906 372.527344 181.601562 372.453125 178.582031 372.304688 C 175.558594 372.15625 172.542969 371.933594 169.53125 371.636719 C 166.519531 371.339844 163.519531 370.972656 160.527344 370.527344 C 157.53125 370.082031 154.554688 369.566406 151.585938 368.976562 C 148.617188 368.386719 145.667969 367.722656 142.730469 366.988281 C 139.796875 366.253906 136.882812 365.445312 133.988281 364.566406 C 131.089844 363.6875 128.21875 362.738281 125.371094 361.71875 C 122.523438 360.703125 119.699219 359.613281 116.902344 358.453125 C 114.109375 357.296875 111.34375 356.070312 108.609375 354.777344 C 105.875 353.484375 103.171875 352.125 100.503906 350.699219 C 97.835938 349.273438 95.203125 347.78125 92.609375 346.226562 C 90.011719 344.667969 87.457031 343.050781 84.941406 341.371094 C 82.425781 339.691406 79.953125 337.949219 77.523438 336.144531 C 75.09375 334.34375 72.707031 332.484375 70.371094 330.5625 C 68.03125 328.644531 65.738281 326.667969 63.5 324.636719 C 61.257812 322.605469 59.066406 320.519531 56.925781 318.378906 C 54.785156 316.238281 52.703125 314.050781 50.667969 311.808594 C 48.636719 309.566406 46.660156 307.273438 44.742188 304.9375 C 42.824219 302.597656 40.960938 300.210938 39.160156 297.78125 C 37.359375 295.351562 35.617188 292.878906 33.933594 290.363281 C 32.253906 287.847656 30.636719 285.292969 29.082031 282.699219 C 27.523438 280.101562 26.035156 277.46875 24.609375 274.800781 C 23.179688 272.132812 21.820312 269.433594 20.527344 266.695312 C 19.234375 263.960938 18.007812 261.195312 16.851562 258.402344 C 15.691406 255.605469 14.605469 252.785156 13.585938 249.933594 C 12.566406 247.085938 11.617188 244.214844 10.738281 241.320312 C 9.859375 238.421875 9.054688 235.507812 8.316406 232.574219 C 7.582031 229.640625 6.921875 226.6875 6.332031 223.71875 C 5.738281 220.753906 5.222656 217.773438 4.777344 214.78125 C 4.335938 211.785156 3.964844 208.785156 3.667969 205.773438 C 3.371094 202.761719 3.148438 199.746094 3 196.722656 C 2.851562 193.703125 2.777344 190.679688 2.777344 187.652344 C 2.777344 184.628906 2.851562 181.601562 3 178.582031 C 3.148438 175.558594 3.371094 172.542969 3.667969 169.53125 C 3.964844 166.519531 4.335938 163.519531 4.777344 160.527344 C 5.222656 157.53125 5.738281 154.554688 6.332031 151.585938 C 6.921875 148.617188 7.582031 145.667969 8.316406 142.730469 C 9.054688 139.796875 9.859375 136.882812 10.738281 133.988281 C 11.617188 131.089844 12.566406 128.21875 13.585938 125.371094 C 14.605469 122.523438 15.691406 119.699219 16.851562 116.902344 C 18.007812 114.109375 19.234375 111.34375 20.527344 108.609375 C 21.820312 105.875 23.179688 103.171875 24.609375 100.503906 C 26.035156 97.835938 27.523438 95.203125 29.082031 92.609375 C 30.636719 90.011719 32.253906 87.457031 33.933594 84.941406 C 35.617188 82.425781 37.359375 79.953125 39.160156 77.523438 C 40.960938 75.09375 42.824219 72.707031 44.742188 70.371094 C 46.660156 68.03125 48.636719 65.738281 50.667969 63.5 C 52.703125 61.257812 54.785156 59.066406 56.925781 56.925781 C 59.066406 54.785156 61.257812 52.703125 63.5 50.667969 C 65.738281 48.636719 68.03125 46.660156 70.371094 44.742188 C 72.707031 42.824219 75.09375 40.960938 77.523438 39.160156 C 79.953125 37.359375 82.425781 35.617188 84.941406 33.933594 C 87.457031 32.253906 90.011719 30.636719 92.609375 29.082031 C 95.203125 27.523438 97.835938 26.035156 100.503906 24.609375 C 103.171875 23.179688 105.875 21.820312 108.609375 20.527344 C 111.34375 19.234375 114.109375 18.007812 116.902344 16.851562 C 119.699219 15.691406 122.523438 14.605469 125.371094 13.585938 C 128.21875 12.566406 131.089844 11.617188 133.988281 10.738281 C 136.882812 9.859375 139.796875 9.054688 142.730469 8.316406 C 145.667969 7.582031 148.617188 6.921875 151.585938 6.332031 C 154.554688 5.738281 157.53125 5.222656 160.527344 4.777344 C 163.519531 4.335938 166.519531 3.964844 169.53125 3.667969 C 172.542969 3.371094 175.558594 3.148438 178.582031 3 C 181.601562 2.851562 184.628906 2.777344 187.652344 2.777344 Z M 187.652344 2.777344 " clip-rule="nonzero"/></clipPath><linearGradient x1="5.374785" gradientTransform="matrix(10.875, 0, 0, 10.875, 2.777782, 2.77777)" y1="-1.927213" x2="20.050524" gradientUnits="userSpaceOnUse" y2="39.001799" id="5804eaf4eb"><stop stop-opacity="1" stop-color="rgb(56.098938%, 0%, 100%)" offset="0"/><stop stop-opacity="1" stop-color="rgb(56.098938%, 0%, 100%)" offset="0.125"/><stop stop-opacity="1" stop-color="rgb(56.098938%, 0%, 100%)" offset="0.140625"/><stop stop-opacity="1" stop-color="rgb(56.359863%, 0%, 100%)" offset="0.144531"/><stop stop-opacity="1" stop-color="rgb(56.620789%, 0%, 100%)" offset="0.148438"/><stop stop-opacity="1" stop-color="rgb(57.028198%, 0%, 100%)" offset="0.152344"/><stop stop-opacity="1" stop-color="rgb(57.437134%, 0%, 100%)" offset="0.15625"/><stop stop-opacity="1" stop-color="rgb(57.844543%, 0%, 100%)" offset="0.160156"/><stop stop-opacity="1" stop-color="rgb(58.253479%, 0%, 100%)" offset="0.164062"/><stop stop-opacity="1" stop-color="rgb(58.660889%, 0%, 100%)" offset="0.167969"/><stop stop-opacity="1" stop-color="rgb(59.068298%, 0%, 100%)" offset="0.171875"/><stop stop-opacity="1" stop-color="rgb(59.475708%, 0%, 100%)" offset="0.175781"/><stop stop-opacity="1" stop-color="rgb(59.884644%, 0%, 100%)" offset="0.179688"/><stop stop-opacity="1" stop-color="rgb(60.292053%, 0%, 100%)" offset="0.183594"/><stop stop-opacity="1" stop-color="rgb(60.700989%, 0%, 100%)" offset="0.1875"/><stop stop-opacity="1" stop-color="rgb(61.108398%, 0%, 100%)" offset="0.191406"/><stop stop-opacity="1" stop-color="rgb(61.517334%, 0%, 100%)" offset="0.195312"/><stop stop-opacity="1" stop-color="rgb(61.924744%, 0%, 100%)" offset="0.199219"/><stop stop-opacity="1" stop-color="rgb(62.333679%, 0%, 100%)" offset="0.203125"/><stop stop-opacity="1" stop-color="rgb(62.741089%, 0%, 100%)" offset="0.207031"/><stop stop-opacity="1" stop-color="rgb(63.150024%, 0%, 100%)" offset="0.210937"/><stop stop-opacity="1" stop-color="rgb(63.557434%, 0%, 100%)" offset="0.214844"/><stop stop-opacity="1" stop-color="rgb(63.96637%, 0%, 100%)" offset="0.21875"/><stop stop-opacity="1" stop-color="rgb(64.373779%, 0%, 100%)" offset="0.222656"/><stop stop-opacity="1" stop-color="rgb(64.782715%, 0%, 100%)" offset="0.226562"/><stop stop-opacity="1" stop-color="rgb(65.190125%, 0%, 100%)" offset="0.230469"/><stop stop-opacity="1" stop-color="rgb(65.59906%, 0%, 100%)" offset="0.234375"/><stop stop-opacity="1" stop-color="rgb(66.00647%, 0%, 100%)" offset="0.238281"/><stop stop-opacity="1" stop-color="rgb(66.415405%, 0%, 100%)" offset="0.242187"/><stop stop-opacity="1" stop-color="rgb(66.822815%, 0%, 100%)" offset="0.246094"/><stop stop-opacity="1" stop-color="rgb(67.23175%, 0%, 100%)" offset="0.25"/><stop stop-opacity="1" stop-color="rgb(67.63916%, 0%, 100%)" offset="0.253906"/><stop stop-opacity="1" stop-color="rgb(68.04657%, 0%, 100%)" offset="0.257812"/><stop stop-opacity="1" stop-color="rgb(68.453979%, 0%, 100%)" offset="0.261719"/><stop stop-opacity="1" stop-color="rgb(68.862915%, 0%, 100%)" offset="0.265625"/><stop stop-opacity="1" stop-color="rgb(69.270325%, 0%, 100%)" offset="0.269531"/><stop stop-opacity="1" stop-color="rgb(69.67926%, 0%, 100%)" offset="0.273437"/><stop stop-opacity="1" stop-color="rgb(70.08667%, 0%, 100%)" offset="0.277344"/><stop stop-opacity="1" stop-color="rgb(70.495605%, 0%, 100%)" offset="0.28125"/><stop stop-opacity="1" stop-color="rgb(70.903015%, 0%, 100%)" offset="0.285156"/><stop stop-opacity="1" stop-color="rgb(71.311951%, 0%, 100%)" offset="0.289062"/><stop stop-opacity="1" stop-color="rgb(71.71936%, 0%, 100%)" offset="0.292969"/><stop stop-opacity="1" stop-color="rgb(72.128296%, 0%, 100%)" offset="0.296875"/><stop stop-opacity="1" stop-color="rgb(72.535706%, 0%, 100%)" offset="0.300781"/><stop stop-opacity="1" stop-color="rgb(72.944641%, 0%, 100%)" offset="0.304687"/><stop stop-opacity="1" stop-color="rgb(73.352051%, 0%, 100%)" offset="0.308594"/><stop stop-opacity="1" stop-color="rgb(73.760986%, 0%, 100%)" offset="0.3125"/><stop stop-opacity="1" stop-color="rgb(74.168396%, 0%, 100%)" offset="0.316406"/><stop stop-opacity="1" stop-color="rgb(74.577332%, 0%, 100%)" offset="0.320312"/><stop stop-opacity="1" stop-color="rgb(74.984741%, 0%, 100%)" offset="0.324219"/><stop stop-opacity="1" stop-color="rgb(75.393677%, 0%, 100%)" offset="0.328125"/><stop stop-opacity="1" stop-color="rgb(75.801086%, 0%, 100%)" offset="0.332031"/><stop stop-opacity="1" stop-color="rgb(76.210022%, 0%, 100%)" offset="0.335938"/><stop stop-opacity="1" stop-color="rgb(76.617432%, 0%, 100%)" offset="0.339844"/><stop stop-opacity="1" stop-color="rgb(77.024841%, 0%, 100%)" offset="0.34375"/><stop stop-opacity="1" stop-color="rgb(77.432251%, 0%, 100%)" offset="0.347656"/><stop stop-opacity="1" stop-color="rgb(77.841187%, 0%, 100%)" offset="0.351562"/><stop stop-opacity="1" stop-color="rgb(78.248596%, 0%, 100%)" offset="0.355469"/><stop stop-opacity="1" stop-color="rgb(78.657532%, 0%, 100%)" offset="0.359375"/><stop stop-opacity="1" stop-color="rgb(79.064941%, 0%, 100%)" offset="0.363281"/><stop stop-opacity="1" stop-color="rgb(79.473877%, 0%, 100%)" offset="0.367187"/><stop stop-opacity="1" stop-color="rgb(79.881287%, 0%, 100%)" offset="0.371094"/><stop stop-opacity="1" stop-color="rgb(80.290222%, 0%, 100%)" offset="0.375"/><stop stop-opacity="1" stop-color="rgb(80.697632%, 0%, 100%)" offset="0.378906"/><stop stop-opacity="1" stop-color="rgb(81.106567%, 0%, 100%)" offset="0.382812"/><stop stop-opacity="1" stop-color="rgb(81.513977%, 0%, 100%)" offset="0.386719"/><stop stop-opacity="1" stop-color="rgb(81.922913%, 0%, 100%)" offset="0.390625"/><stop stop-opacity="1" stop-color="rgb(82.330322%, 0%, 100%)" offset="0.394531"/><stop stop-opacity="1" stop-color="rgb(82.739258%, 0%, 100%)" offset="0.398438"/><stop stop-opacity="1" stop-color="rgb(83.146667%, 0%, 100%)" offset="0.402344"/><stop stop-opacity="1" stop-color="rgb(83.555603%, 0%, 100%)" offset="0.40625"/><stop stop-opacity="1" stop-color="rgb(83.963013%, 0%, 100%)" offset="0.410156"/><stop stop-opacity="1" stop-color="rgb(84.371948%, 0%, 100%)" offset="0.414062"/><stop stop-opacity="1" stop-color="rgb(84.779358%, 0%, 100%)" offset="0.417969"/><stop stop-opacity="1" stop-color="rgb(85.188293%, 0%, 100%)" offset="0.421875"/><stop stop-opacity="1" stop-color="rgb(85.559082%, 0.0869751%, 99.887085%)" offset="0.425781"/><stop stop-opacity="1" stop-color="rgb(85.931396%, 0.17395%, 99.77417%)" offset="0.429687"/><stop stop-opacity="1" stop-color="rgb(86.054993%, 0.857544%, 98.89679%)" offset="0.433594"/><stop stop-opacity="1" stop-color="rgb(86.178589%, 1.542664%, 98.020935%)" offset="0.4375"/><stop stop-opacity="1" stop-color="rgb(86.302185%, 2.226257%, 97.143555%)" offset="0.441406"/><stop stop-opacity="1" stop-color="rgb(86.425781%, 2.911377%, 96.266174%)" offset="0.445312"/><stop stop-opacity="1" stop-color="rgb(86.549377%, 3.594971%, 95.388794%)" offset="0.449219"/><stop stop-opacity="1" stop-color="rgb(86.672974%, 4.278564%, 94.511414%)" offset="0.453125"/><stop stop-opacity="1" stop-color="rgb(86.79657%, 4.962158%, 93.634033%)" offset="0.457031"/><stop stop-opacity="1" stop-color="rgb(86.920166%, 5.647278%, 92.758179%)" offset="0.460938"/><stop stop-opacity="1" stop-color="rgb(87.043762%, 6.330872%, 91.880798%)" offset="0.464844"/><stop stop-opacity="1" stop-color="rgb(87.167358%, 7.015991%, 91.003418%)" offset="0.46875"/><stop stop-opacity="1" stop-color="rgb(87.290955%, 7.699585%, 90.126038%)" offset="0.472656"/><stop stop-opacity="1" stop-color="rgb(87.414551%, 8.383179%, 89.250183%)" offset="0.476562"/><stop stop-opacity="1" stop-color="rgb(87.538147%, 9.066772%, 88.372803%)" offset="0.480469"/><stop stop-opacity="1" stop-color="rgb(87.661743%, 9.751892%, 87.495422%)" offset="0.484375"/><stop stop-opacity="1" stop-color="rgb(87.785339%, 10.435486%, 86.618042%)" offset="0.488281"/><stop stop-opacity="1" stop-color="rgb(87.908936%, 11.120605%, 85.740662%)" offset="0.492187"/><stop stop-opacity="1" stop-color="rgb(88.032532%, 11.804199%, 84.863281%)" offset="0.496094"/><stop stop-opacity="1" stop-color="rgb(88.157654%, 12.489319%, 83.987427%)" offset="0.5"/><stop stop-opacity="1" stop-color="rgb(88.28125%, 13.172913%, 83.110046%)" offset="0.503906"/><stop stop-opacity="1" stop-color="rgb(88.404846%, 13.856506%, 82.232666%)" offset="0.507812"/><stop stop-opacity="1" stop-color="rgb(88.528442%, 14.5401%, 81.355286%)" offset="0.511719"/><stop stop-opacity="1" stop-color="rgb(88.652039%, 15.22522%, 80.479431%)" offset="0.515625"/><stop stop-opacity="1" stop-color="rgb(88.775635%, 15.908813%, 79.602051%)" offset="0.519531"/><stop stop-opacity="1" stop-color="rgb(88.899231%, 16.593933%, 78.72467%)" offset="0.523438"/><stop stop-opacity="1" stop-color="rgb(89.022827%, 17.277527%, 77.84729%)" offset="0.527344"/><stop stop-opacity="1" stop-color="rgb(89.146423%, 17.961121%, 76.96991%)" offset="0.53125"/><stop stop-opacity="1" stop-color="rgb(89.27002%, 18.644714%, 76.092529%)" offset="0.535156"/><stop stop-opacity="1" stop-color="rgb(89.393616%, 19.329834%, 75.216675%)" offset="0.539062"/><stop stop-opacity="1" stop-color="rgb(89.517212%, 20.013428%, 74.339294%)" offset="0.542969"/><stop stop-opacity="1" stop-color="rgb(89.640808%, 20.698547%, 73.461914%)" offset="0.546875"/><stop stop-opacity="1" stop-color="rgb(89.764404%, 21.382141%, 72.584534%)" offset="0.550781"/><stop stop-opacity="1" stop-color="rgb(89.888%, 22.065735%, 71.708679%)" offset="0.554688"/><stop stop-opacity="1" stop-color="rgb(90.011597%, 22.749329%, 70.831299%)" offset="0.558594"/><stop stop-opacity="1" stop-color="rgb(90.135193%, 23.434448%, 69.953918%)" offset="0.5625"/><stop stop-opacity="1" stop-color="rgb(90.258789%, 24.118042%, 69.076538%)" offset="0.566406"/><stop stop-opacity="1" stop-color="rgb(90.382385%, 24.803162%, 68.199158%)" offset="0.570312"/><stop stop-opacity="1" stop-color="rgb(90.505981%, 25.486755%, 67.321777%)" offset="0.574219"/><stop stop-opacity="1" stop-color="rgb(90.629578%, 26.170349%, 66.445923%)" offset="0.578125"/><stop stop-opacity="1" stop-color="rgb(90.753174%, 26.853943%, 65.568542%)" offset="0.582031"/><stop stop-opacity="1" stop-color="rgb(90.878296%, 27.539062%, 64.691162%)" offset="0.585937"/><stop stop-opacity="1" stop-color="rgb(91.001892%, 28.222656%, 63.813782%)" offset="0.589844"/><stop stop-opacity="1" stop-color="rgb(91.125488%, 28.907776%, 62.937927%)" offset="0.59375"/><stop stop-opacity="1" stop-color="rgb(91.249084%, 29.59137%, 62.060547%)" offset="0.597656"/><stop stop-opacity="1" stop-color="rgb(91.372681%, 30.276489%, 61.183167%)" offset="0.601562"/><stop stop-opacity="1" stop-color="rgb(91.496277%, 30.960083%, 60.305786%)" offset="0.605469"/><stop stop-opacity="1" stop-color="rgb(91.619873%, 31.643677%, 59.428406%)" offset="0.609375"/><stop stop-opacity="1" stop-color="rgb(91.743469%, 32.327271%, 58.551025%)" offset="0.613281"/><stop stop-opacity="1" stop-color="rgb(91.867065%, 33.01239%, 57.675171%)" offset="0.617187"/><stop stop-opacity="1" stop-color="rgb(91.990662%, 33.695984%, 56.797791%)" offset="0.621094"/><stop stop-opacity="1" stop-color="rgb(92.114258%, 34.381104%, 55.92041%)" offset="0.625"/><stop stop-opacity="1" stop-color="rgb(92.237854%, 35.064697%, 55.04303%)" offset="0.628906"/><stop stop-opacity="1" stop-color="rgb(92.36145%, 35.748291%, 54.167175%)" offset="0.632812"/><stop stop-opacity="1" stop-color="rgb(92.485046%, 36.431885%, 53.289795%)" offset="0.636719"/><stop stop-opacity="1" stop-color="rgb(92.608643%, 37.117004%, 52.412415%)" offset="0.640625"/><stop stop-opacity="1" stop-color="rgb(92.732239%, 37.800598%, 51.535034%)" offset="0.644531"/><stop stop-opacity="1" stop-color="rgb(92.855835%, 38.485718%, 50.657654%)" offset="0.648437"/><stop stop-opacity="1" stop-color="rgb(92.979431%, 39.169312%, 49.780273%)" offset="0.652344"/><stop stop-opacity="1" stop-color="rgb(93.103027%, 39.852905%, 48.904419%)" offset="0.65625"/><stop stop-opacity="1" stop-color="rgb(93.226624%, 40.536499%, 48.027039%)" offset="0.660156"/><stop stop-opacity="1" stop-color="rgb(93.351746%, 41.221619%, 47.149658%)" offset="0.664062"/><stop stop-opacity="1" stop-color="rgb(93.475342%, 41.905212%, 46.272278%)" offset="0.667969"/><stop stop-opacity="1" stop-color="rgb(93.598938%, 42.590332%, 45.396423%)" offset="0.671875"/><stop stop-opacity="1" stop-color="rgb(93.722534%, 43.273926%, 44.519043%)" offset="0.675781"/><stop stop-opacity="1" stop-color="rgb(93.84613%, 43.95752%, 43.641663%)" offset="0.679688"/><stop stop-opacity="1" stop-color="rgb(93.969727%, 44.641113%, 42.764282%)" offset="0.683594"/><stop stop-opacity="1" stop-color="rgb(94.093323%, 45.326233%, 41.886902%)" offset="0.6875"/><stop stop-opacity="1" stop-color="rgb(94.216919%, 46.009827%, 41.009521%)" offset="0.691406"/><stop stop-opacity="1" stop-color="rgb(94.340515%, 46.694946%, 40.133667%)" offset="0.695312"/><stop stop-opacity="1" stop-color="rgb(94.464111%, 47.37854%, 39.256287%)" offset="0.699219"/><stop stop-opacity="1" stop-color="rgb(94.587708%, 48.062134%, 38.378906%)" offset="0.703125"/><stop stop-opacity="1" stop-color="rgb(94.711304%, 48.745728%, 37.501526%)" offset="0.707031"/><stop stop-opacity="1" stop-color="rgb(94.8349%, 49.430847%, 36.625671%)" offset="0.710938"/><stop stop-opacity="1" stop-color="rgb(94.958496%, 50.114441%, 35.748291%)" offset="0.714844"/><stop stop-opacity="1" stop-color="rgb(95.082092%, 50.799561%, 34.870911%)" offset="0.71875"/><stop stop-opacity="1" stop-color="rgb(95.205688%, 51.483154%, 33.99353%)" offset="0.722656"/><stop stop-opacity="1" stop-color="rgb(95.329285%, 52.168274%, 33.11615%)" offset="0.726562"/><stop stop-opacity="1" stop-color="rgb(95.452881%, 52.851868%, 32.23877%)" offset="0.730469"/><stop stop-opacity="1" stop-color="rgb(95.576477%, 53.535461%, 31.362915%)" offset="0.734375"/><stop stop-opacity="1" stop-color="rgb(95.700073%, 54.219055%, 30.485535%)" offset="0.738281"/><stop stop-opacity="1" stop-color="rgb(95.823669%, 54.904175%, 29.608154%)" offset="0.742187"/><stop stop-opacity="1" stop-color="rgb(95.947266%, 55.587769%, 28.730774%)" offset="0.746094"/><stop stop-opacity="1" stop-color="rgb(96.072388%, 56.272888%, 27.854919%)" offset="0.75"/><stop stop-opacity="1" stop-color="rgb(96.195984%, 56.956482%, 26.977539%)" offset="0.753906"/><stop stop-opacity="1" stop-color="rgb(96.31958%, 57.640076%, 26.100159%)" offset="0.757812"/><stop stop-opacity="1" stop-color="rgb(96.443176%, 58.323669%, 25.222778%)" offset="0.761719"/><stop stop-opacity="1" stop-color="rgb(96.566772%, 59.008789%, 24.345398%)" offset="0.765625"/><stop stop-opacity="1" stop-color="rgb(96.690369%, 59.692383%, 23.468018%)" offset="0.769531"/><stop stop-opacity="1" stop-color="rgb(96.813965%, 60.377502%, 22.592163%)" offset="0.773437"/><stop stop-opacity="1" stop-color="rgb(96.937561%, 61.061096%, 21.714783%)" offset="0.777344"/><stop stop-opacity="1" stop-color="rgb(97.061157%, 61.74469%, 20.837402%)" offset="0.78125"/><stop stop-opacity="1" stop-color="rgb(97.184753%, 62.428284%, 19.960022%)" offset="0.785156"/><stop stop-opacity="1" stop-color="rgb(97.30835%, 63.113403%, 19.084167%)" offset="0.789062"/><stop stop-opacity="1" stop-color="rgb(97.431946%, 63.796997%, 18.206787%)" offset="0.792969"/><stop stop-opacity="1" stop-color="rgb(97.555542%, 64.482117%, 17.329407%)" offset="0.796875"/><stop stop-opacity="1" stop-color="rgb(97.679138%, 65.16571%, 16.452026%)" offset="0.800781"/><stop stop-opacity="1" stop-color="rgb(97.802734%, 65.849304%, 15.574646%)" offset="0.804688"/><stop stop-opacity="1" stop-color="rgb(97.926331%, 66.532898%, 14.697266%)" offset="0.808594"/><stop stop-opacity="1" stop-color="rgb(98.049927%, 67.218018%, 13.821411%)" offset="0.8125"/><stop stop-opacity="1" stop-color="rgb(98.173523%, 67.901611%, 12.944031%)" offset="0.816406"/><stop stop-opacity="1" stop-color="rgb(98.297119%, 68.586731%, 12.06665%)" offset="0.820312"/><stop stop-opacity="1" stop-color="rgb(98.420715%, 69.270325%, 11.18927%)" offset="0.824219"/><stop stop-opacity="1" stop-color="rgb(98.544312%, 69.955444%, 10.313416%)" offset="0.828125"/><stop stop-opacity="1" stop-color="rgb(98.667908%, 70.639038%, 9.436035%)" offset="0.832031"/><stop stop-opacity="1" stop-color="rgb(98.79303%, 71.322632%, 8.558655%)" offset="0.835938"/><stop stop-opacity="1" stop-color="rgb(98.916626%, 72.006226%, 7.681274%)" offset="0.839844"/><stop stop-opacity="1" stop-color="rgb(99.040222%, 72.691345%, 6.803894%)" offset="0.84375"/><stop stop-opacity="1" stop-color="rgb(99.163818%, 73.374939%, 5.926514%)" offset="0.847656"/><stop stop-opacity="1" stop-color="rgb(99.287415%, 74.060059%, 5.050659%)" offset="0.851562"/><stop stop-opacity="1" stop-color="rgb(99.411011%, 74.743652%, 4.173279%)" offset="0.855469"/><stop stop-opacity="1" stop-color="rgb(99.534607%, 75.427246%, 3.295898%)" offset="0.859375"/><stop stop-opacity="1" stop-color="rgb(99.658203%, 76.11084%, 2.418518%)" offset="0.863281"/><stop stop-opacity="1" stop-color="rgb(99.781799%, 76.795959%, 1.542664%)" offset="0.867187"/><stop stop-opacity="1" stop-color="rgb(99.890137%, 77.497864%, 1.225281%)" offset="0.871094"/><stop stop-opacity="1" stop-color="rgb(100%, 78.199768%, 0.909424%)" offset="0.875"/><stop stop-opacity="1" stop-color="rgb(100%, 79.029846%, 4.685974%)" offset="0.878906"/><stop stop-opacity="1" stop-color="rgb(100%, 79.86145%, 8.46405%)" offset="0.882812"/><stop stop-opacity="1" stop-color="rgb(100%, 80.691528%, 12.240601%)" offset="0.886719"/><stop stop-opacity="1" stop-color="rgb(100%, 81.523132%, 16.018677%)" offset="0.890625"/><stop stop-opacity="1" stop-color="rgb(100%, 82.35321%, 19.795227%)" offset="0.894531"/><stop stop-opacity="1" stop-color="rgb(100%, 83.184814%, 23.571777%)" offset="0.898437"/><stop stop-opacity="1" stop-color="rgb(100%, 84.014893%, 27.348328%)" offset="0.902344"/><stop stop-opacity="1" stop-color="rgb(100%, 84.846497%, 31.126404%)" offset="0.90625"/><stop stop-opacity="1" stop-color="rgb(100%, 85.678101%, 34.902954%)" offset="0.910156"/><stop stop-opacity="1" stop-color="rgb(100%, 86.509705%, 38.68103%)" offset="0.914062"/><stop stop-opacity="1" stop-color="rgb(100%, 87.339783%, 42.457581%)" offset="0.917969"/><stop stop-opacity="1" stop-color="rgb(100%, 88.171387%, 46.234131%)" offset="0.921875"/><stop stop-opacity="1" stop-color="rgb(100%, 89.001465%, 50.010681%)" offset="0.925781"/><stop stop-opacity="1" stop-color="rgb(100%, 89.833069%, 53.788757%)" offset="0.929688"/><stop stop-opacity="1" stop-color="rgb(100%, 90.663147%, 57.565308%)" offset="0.933594"/><stop stop-opacity="1" stop-color="rgb(100%, 91.494751%, 61.343384%)" offset="0.9375"/><stop stop-opacity="1" stop-color="rgb(100%, 92.324829%, 65.119934%)" offset="0.941406"/><stop stop-opacity="1" stop-color="rgb(100%, 93.156433%, 68.896484%)" offset="0.945312"/><stop stop-opacity="1" stop-color="rgb(100%, 93.986511%, 72.673035%)" offset="0.949219"/><stop stop-opacity="1" stop-color="rgb(100%, 94.818115%, 76.451111%)" offset="0.953125"/><stop stop-opacity="1" stop-color="rgb(100%, 95.649719%, 80.227661%)" offset="0.957031"/><stop stop-opacity="1" stop-color="rgb(100%, 96.481323%, 84.005737%)" offset="0.960938"/><stop stop-opacity="1" stop-color="rgb(100%, 97.311401%, 87.782288%)" offset="0.964844"/><stop stop-opacity="1" stop-color="rgb(100%, 98.143005%, 91.560364%)" offset="0.96875"/><stop stop-opacity="1" stop-color="rgb(100%, 98.973083%, 95.336914%)" offset="0.972656"/><stop stop-opacity="1" stop-color="rgb(100%, 99.804688%, 99.113464%)" offset="0.976562"/><stop stop-opacity="1" stop-color="rgb(100%, 99.902344%, 99.555969%)" offset="0.980469"/><stop stop-opacity="1" stop-color="rgb(100%, 100%, 100%)" offset="0.984375"/><stop stop-opacity="1" stop-color="rgb(100%, 100%, 100%)" offset="1"/></linearGradient></defs><g clip-path="url(#72e4f7338c)"><g clip-path="url(#6773b83b9b)"><path fill="url(#5804eaf4eb)" d="M 2.777344 2.777344 L 2.777344 372.527344 L 372.527344 372.527344 L 372.527344 2.777344 Z M 2.777344 2.777344 " fill-rule="nonzero"/></g></g><path fill="#ffffff" d="M 187.652344 89.777344 C 133.597656 89.777344 89.777344 133.597656 89.777344 187.652344 C 89.777344 213.601562 99.875 237.195312 116.359375 254.710938 C 123.589844 240.71875 138.191406 231.152344 155.027344 231.152344 L 220.277344 231.152344 C 237.113281 231.152344 251.714844 240.71875 258.945312 254.710938 C 275.429688 237.195312 285.527344 213.601562 285.527344 187.652344 C 285.527344 133.597656 241.707031 89.777344 187.652344 89.777344 Z M 241.402344 269.460938 C 239.078125 259.957031 230.5 252.902344 220.277344 252.902344 L 155.027344 252.902344 C 144.804688 252.902344 136.230469 259.957031 133.902344 269.460938 C 149.328125 279.617188 167.800781 285.527344 187.652344 285.527344 C 207.503906 285.527344 225.976562 279.617188 241.402344 269.460938 Z M 68.027344 187.652344 C 68.027344 121.585938 121.585938 68.027344 187.652344 68.027344 C 253.71875 68.027344 307.277344 121.585938 307.277344 187.652344 C 307.277344 253.71875 253.71875 307.277344 187.652344 307.277344 C 121.585938 307.277344 68.027344 253.71875 68.027344 187.652344 Z M 187.652344 133.277344 C 169.632812 133.277344 155.027344 147.882812 155.027344 165.902344 C 155.027344 183.921875 169.632812 198.527344 187.652344 198.527344 C 205.671875 198.527344 220.277344 183.921875 220.277344 165.902344 C 220.277344 147.882812 205.671875 133.277344 187.652344 133.277344 Z M 133.277344 165.902344 C 133.277344 135.871094 157.621094 111.527344 187.652344 111.527344 C 217.683594 111.527344 242.027344 135.871094 242.027344 165.902344 C 242.027344 195.933594 217.683594 220.277344 187.652344 220.277344 C 157.621094 220.277344 133.277344 195.933594 133.277344 165.902344 Z M 133.277344 165.902344 " fill-opacity="1" fill-rule="evenodd"/></svg>