<svg xmlns="http://www.w3.org/2000/svg" xmlns:xlink="http://www.w3.org/1999/xlink" width="500" zoomAndPan="magnify" viewBox="0 0 375 374.999991" height="500" preserveAspectRatio="xMidYMid meet" version="1.0"><defs><clipPath id="728f8ec1a5"><path d="M 4.859375 4.859375 L 370.109375 4.859375 L 370.109375 370.109375 L 4.859375 370.109375 Z M 4.859375 4.859375 " clip-rule="nonzero"/></clipPath></defs><g clip-path="url(#728f8ec1a5)"><path fill="#0866c2" d="M 370.136719 314.59375 C 370.136719 345.25 345.285156 370.097656 314.628906 370.097656 L 60.378906 370.097656 C 29.722656 370.097656 4.875 345.25 4.875 314.59375 L 4.875 60.34375 C 4.875 29.6875 29.722656 4.839844 60.378906 4.839844 L 314.628906 4.839844 C 345.285156 4.839844 370.136719 29.6875 370.136719 60.34375 Z M 370.136719 314.59375 " fill-opacity="1" fill-rule="nonzero"/></g><path fill="#ffffff" d="M 149.304688 135.152344 C 149.304688 136.046875 149.261719 136.9375 149.175781 137.828125 C 149.085938 138.71875 148.957031 139.601562 148.78125 140.476562 C 148.609375 141.351562 148.390625 142.21875 148.132812 143.074219 C 147.871094 143.929688 147.570312 144.769531 147.230469 145.59375 C 146.886719 146.421875 146.503906 147.226562 146.085938 148.015625 C 145.664062 148.804688 145.203125 149.570312 144.707031 150.3125 C 144.210938 151.054688 143.679688 151.773438 143.113281 152.464844 C 142.546875 153.15625 141.945312 153.816406 141.316406 154.449219 C 140.683594 155.078125 140.019531 155.679688 139.332031 156.246094 C 138.640625 156.8125 137.921875 157.34375 137.179688 157.839844 C 136.4375 158.335938 135.671875 158.796875 134.882812 159.21875 C 134.09375 159.640625 133.289062 160.019531 132.460938 160.363281 C 131.636719 160.703125 130.796875 161.003906 129.941406 161.265625 C 129.085938 161.523438 128.21875 161.742188 127.34375 161.914062 C 126.46875 162.089844 125.585938 162.21875 124.695312 162.308594 C 123.804688 162.394531 122.914062 162.441406 122.019531 162.441406 C 121.125 162.441406 120.234375 162.394531 119.347656 162.308594 C 118.457031 162.21875 117.574219 162.089844 116.695312 161.914062 C 115.820312 161.742188 114.953125 161.523438 114.097656 161.265625 C 113.246094 161.003906 112.402344 160.703125 111.578125 160.363281 C 110.753906 160.019531 109.945312 159.640625 109.15625 159.21875 C 108.371094 158.796875 107.605469 158.335938 106.859375 157.839844 C 106.117188 157.34375 105.402344 156.8125 104.710938 156.246094 C 104.019531 155.679688 103.359375 155.078125 102.726562 154.449219 C 102.09375 153.816406 101.496094 153.15625 100.929688 152.464844 C 100.359375 151.773438 99.828125 151.054688 99.332031 150.3125 C 98.835938 149.570312 98.378906 148.804688 97.957031 148.015625 C 97.535156 147.226562 97.152344 146.421875 96.8125 145.59375 C 96.46875 144.769531 96.167969 143.929688 95.910156 143.074219 C 95.648438 142.21875 95.433594 141.351562 95.257812 140.476562 C 95.085938 139.601562 94.953125 138.71875 94.867188 137.828125 C 94.777344 136.9375 94.734375 136.046875 94.734375 135.152344 C 94.734375 134.261719 94.777344 133.367188 94.867188 132.480469 C 94.953125 131.589844 95.085938 130.707031 95.257812 129.832031 C 95.433594 128.953125 95.648438 128.089844 95.910156 127.234375 C 96.167969 126.378906 96.46875 125.539062 96.8125 124.710938 C 97.152344 123.886719 97.535156 123.078125 97.957031 122.289062 C 98.378906 121.503906 98.835938 120.738281 99.332031 119.996094 C 99.828125 119.25 100.359375 118.535156 100.929688 117.84375 C 101.496094 117.152344 102.09375 116.492188 102.726562 115.859375 C 103.359375 115.226562 104.019531 114.628906 104.710938 114.0625 C 105.402344 113.496094 106.117188 112.960938 106.859375 112.464844 C 107.605469 111.96875 108.371094 111.511719 109.15625 111.089844 C 109.945312 110.667969 110.753906 110.285156 111.578125 109.945312 C 112.402344 109.601562 113.246094 109.300781 114.097656 109.042969 C 114.953125 108.78125 115.820312 108.566406 116.695312 108.390625 C 117.574219 108.21875 118.457031 108.085938 119.347656 108 C 120.234375 107.910156 121.125 107.867188 122.019531 107.867188 C 122.914062 107.867188 123.804688 107.910156 124.695312 108 C 125.585938 108.085938 126.46875 108.21875 127.34375 108.390625 C 128.21875 108.566406 129.085938 108.78125 129.941406 109.042969 C 130.796875 109.300781 131.636719 109.601562 132.460938 109.945312 C 133.289062 110.285156 134.09375 110.667969 134.882812 111.089844 C 135.671875 111.511719 136.4375 111.96875 137.179688 112.464844 C 137.921875 112.960938 138.640625 113.496094 139.332031 114.0625 C 140.019531 114.628906 140.683594 115.226562 141.316406 115.859375 C 141.945312 116.492188 142.546875 117.152344 143.113281 117.84375 C 143.679688 118.535156 144.210938 119.25 144.707031 119.996094 C 145.203125 120.738281 145.664062 121.503906 146.085938 122.289062 C 146.503906 123.078125 146.886719 123.886719 147.230469 124.710938 C 147.570312 125.539062 147.871094 126.378906 148.132812 127.234375 C 148.390625 128.089844 148.609375 128.953125 148.78125 129.832031 C 148.957031 130.707031 149.085938 131.589844 149.175781 132.480469 C 149.261719 133.367188 149.304688 134.261719 149.304688 135.152344 Z M 149.304688 135.152344 " fill-opacity="1" fill-rule="nonzero"/><path fill="#ffffff" d="M 98.496094 182.554688 L 145.375 182.554688 L 145.375 333.355469 L 98.496094 333.355469 Z M 98.496094 182.554688 " fill-opacity="1" fill-rule="nonzero"/><path fill="#ffffff" d="M 174.855469 182.554688 L 219.472656 182.554688 L 219.472656 333.355469 L 174.855469 333.355469 Z M 174.855469 182.554688 " fill-opacity="1" fill-rule="nonzero"/><path fill="#ffffff" d="M 176.785156 262.847656 L 221.402344 262.847656 L 221.402344 333.355469 L 176.785156 333.355469 Z M 176.785156 262.847656 " fill-opacity="1" fill-rule="nonzero"/><path fill="#ffffff" d="M 221.402344 262.847656 C 221.402344 262.847656 220.703125 243.289062 225.863281 233.117188 C 225.863281 233.117188 231.019531 220.59375 247.234375 220.519531 C 247.234375 220.519531 266.253906 217.199219 271.707031 236.066406 C 271.707031 236.066406 273.769531 246.53125 273.769531 250.957031 C 273.769531 255.378906 273.917969 333.359375 273.917969 333.359375 L 320.644531 333.359375 L 320.644531 246.976562 C 320.644531 246.976562 324.035156 198.183594 294.75 184.816406 C 294.75 184.816406 246.59375 163.195312 220.457031 202.898438 C 220.457031 202.898438 214.757812 206.828125 213.96875 195.820312 C 213.183594 184.816406 206.5 212.726562 206.304688 213.316406 C 206.109375 213.90625 213.96875 268.9375 213.96875 268.9375 Z M 221.402344 262.847656 " fill-opacity="1" fill-rule="nonzero"/></svg>